<?xml version="1.0" standalone="no"?>
<!DOCTYPE svg PUBLIC "-//W3C//DTD SVG 20010904//EN"
 "http://www.w3.org/TR/2001/REC-SVG-20010904/DTD/svg10.dtd">
<svg version="1.0" xmlns="http://www.w3.org/2000/svg"
 width="500.000000pt" height="500.000000pt" viewBox="0 0 500.000000 500.000000"
 preserveAspectRatio="xMidYMid meet">
<metadata>
Created by potrace 1.14, written by Peter Selinger 2001-2017
</metadata>
<g transform="translate(0.000000,500.000000) scale(0.100000,-0.100000)"
fill="#000000" stroke="none">
<path d="M1258 3372 l-88 -3 0 -77 c0 -66 4 -83 25 -115 14 -20 21 -37 14 -37
-6 0 -13 9 -16 20 -3 11 -8 20 -12 20 -5 0 -6 -1008 -2 -1460 l1 -66 105 1
c96 1 120 5 120 23 0 4 9 19 19 34 17 26 18 59 17 506 l-1 479 -76 149 c-42
82 -87 165 -99 184 -36 58 -60 107 -42 90 14 -15 94 -150 172 -291 22 -40 59
-107 82 -149 23 -41 57 -104 76 -140 19 -36 58 -105 86 -153 28 -49 51 -93 51
-98 0 -5 51 -9 113 -9 l112 0 29 53 c16 28 43 79 61 112 128 235 302 542 355
625 16 25 29 50 29 55 1 7 46 10 122 10 l122 0 31 -40 c17 -22 59 -75 94 -118
34 -42 62 -81 62 -86 0 -4 12 -21 26 -37 14 -16 57 -69 95 -119 37 -49 77
-101 88 -115 18 -22 21 -40 21 -160 l0 -135 -56 -65 c-31 -36 -78 -87 -105
-115 -26 -27 -60 -66 -76 -85 -15 -19 -47 -55 -71 -80 l-43 -45 -125 -2 c-141
-1 -145 1 -123 64 10 29 13 161 14 563 1 289 -1 531 -3 538 -2 6 -16 12 -31
12 -22 0 -32 -12 -69 -78 -23 -42 -47 -84 -52 -92 -40 -62 -123 -218 -135
-252 -11 -34 -14 -123 -15 -471 l0 -428 -42 -57 c-22 -31 -45 -63 -51 -69 -7
-10 73 -13 397 -13 l407 0 22 23 c23 24 81 90 188 217 35 41 67 77 70 80 3 3
26 28 49 55 24 28 48 49 53 47 4 -1 5 2 2 8 -4 7 2 21 12 33 35 39 35 45 -4
88 -41 46 -42 44 27 90 24 16 24 17 24 190 l0 174 -52 70 c-29 39 -62 81 -73
95 -30 37 -47 59 -124 165 -38 53 -112 153 -163 222 -50 69 -89 130 -85 136 4
7 10 4 17 -8 15 -25 164 -204 193 -232 23 -22 31 -23 206 -24 469 -1 497 -4
515 -58 10 -31 9 -567 -1 -598 -12 -33 -123 -79 -257 -106 l-65 -13 -52 -99
c-29 -55 -57 -101 -62 -101 -6 -1 -17 -2 -23 -3 -8 -1 -4 -8 8 -19 21 -17 55
-61 167 -216 33 -45 69 -92 81 -106 13 -14 42 -53 65 -86 l42 -62 165 -1 166
-2 -19 31 c-25 43 -213 291 -256 339 -19 22 -41 50 -47 63 -7 12 -21 33 -32
44 -12 13 -15 24 -10 28 18 11 127 30 237 41 33 3 90 15 126 26 56 16 70 25
91 57 53 80 52 78 51 549 l-2 411 -31 61 c-21 42 -43 69 -72 88 l-41 28 -911
0 -911 0 -21 -41 c-11 -23 -32 -62 -46 -85 -37 -64 -58 -102 -118 -214 -29
-55 -68 -127 -87 -160 -18 -33 -43 -79 -55 -102 -12 -24 -25 -43 -29 -43 -4 0
-14 17 -23 38 -16 38 -78 156 -114 214 -10 18 -59 110 -107 203 -48 94 -91
174 -96 180 -10 10 -55 12 -201 7z"/>
</g>
</svg>
